<svg xmlns="http://www.w3.org/2000/svg" viewBox="0 0 1200 900" role="img" aria-labelledby="t d">
<title id="t">Night Ferry</title><desc id="d">A small white ferry crossing black water beneath amber patrol searchlights.</desc>
<rect width="1200" height="900" fill="#031115"/>
<g fill="none" stroke="#0d2b31" stroke-width="2" opacity=".9">
<path d="M0 160 C160 120 300 205 470 165 S780 115 1200 170"/>
<path d="M0 250 C150 205 310 285 500 245 S820 205 1200 260"/>
<path d="M0 350 C155 315 300 375 490 340 S800 305 1200 355"/>
<path d="M0 455 C170 410 320 500 515 455 S850 410 1200 465"/>
<path d="M0 575 C160 525 340 620 540 570 S860 530 1200 585"/>
<path d="M0 690 C185 650 360 730 575 685 S900 650 1200 705"/>
</g>
<rect x="125" y="225" width="240" height="250" fill="#0a0c0b" stroke="#d7ceb6" stroke-width="4"/>
<rect x="760" y="420" width="250" height="235" fill="#0a0c0b" stroke="#d7ceb6" stroke-width="4"/>
<path d="M652 290 L1030 70 A445 445 0 0 1 1070 395 Z" fill="#ffd36b" opacity=".17"/>
<path d="M648 292 L1020 77" stroke="#ffd36b" stroke-width="3" opacity=".7"/>
<g transform="translate(645 292) rotate(-30)"><path d="M26 0 L-18 -12 L-10 0 L-18 12 Z" fill="#f2ead5"/><circle cx="6" cy="0" r="5" fill="#ffd36b"/></g>
<g transform="translate(495 610) rotate(-21)"><path d="M34 0 L-24 -15 L-15 0 L-24 15 Z" fill="#f2ead5" stroke="#ff6a3d" stroke-width="4"/><path d="M-16 21 C-48 35 -72 34 -104 22" fill="none" stroke="#f2ead5" stroke-width="3" opacity=".5"/><path d="M-18 30 C-55 48 -87 46 -125 32" fill="none" stroke="#f2ead5" stroke-width="2" opacity=".28"/></g>
<g transform="translate(294 665)"><circle r="14" fill="#062228" stroke="#6be0d0" stroke-width="4"/><path d="M0 -14 V-36 M-10 -30 H10" stroke="#6be0d0" stroke-width="4"/></g>
<g transform="translate(1075 635)" fill="none" stroke="#f2ead5" stroke-width="5"><rect x="-42" y="-32" width="84" height="64"/><path d="M-28 -18 H28 M-28 0 H28 M-28 18 H28"/></g>
<text x="72" y="94" fill="#ff6a3d" font-family="Courier New,monospace" font-weight="700" font-size="25" letter-spacing="4">DAILY GAME / 002 / ONE-FINGER STEALTH</text>
<text x="68" y="785" fill="#f2ead5" font-family="Arial Black,Arial,sans-serif" font-weight="900" font-size="142" letter-spacing="-10">NIGHT FERRY</text>
<text x="76" y="840" fill="#92a29f" font-family="Courier New,monospace" font-size="22" letter-spacing="3">MOVE THE BOAT / MOVE THE WORLD</text>
</svg>